<?xml version="1.0" standalone="yes"?>
<svg xmlns="http://www.w3.org/2000/svg" width="1151" height="550">
<path style="fill:#f1f3f3; stroke:none;" d="M0 0L0 107C0 117.812 -4.15288 139.382 1.02778 148.907C5.86698 157.803 24.2388 164.718 33 169.219C65.4785 185.905 100.503 198.048 136 206.336C236.28 229.749 343.61 226.121 441 191.459C464.452 183.112 488.229 172.623 509.715 160.019C525.545 150.732 540.431 140.262 558 134.299C577.461 127.695 599.561 125.69 620 127.09C644.097 128.74 668.46 135.59 689 148.465C702.967 157.219 715.232 168.899 730.17 176.192C777.936 199.512 829.052 210 882 210C902.822 210 923.6 207.004 944 203.066C950.044 201.9 962.204 201.054 966 196C983.411 199.254 1004.76 181.68 1021 177L1025 174L1025 173C968.02 175.447 910.801 167.967 859.089 142.62C840.902 133.705 821.855 121.758 807.513 107.306C801.826 101.576 792.674 88.1862 784 89C781.814 80.614 766.383 75.8487 759.039 72.8896C730.394 61.3468 700.35 60.8097 670.004 64.1805C640.198 67.4913 614.751 85.6543 586.985 95.0887C543.502 109.864 498.693 119.479 453 123.83C412.024 127.732 371.801 124.716 331 120.83C315.888 119.391 294.626 108.979 280 113L265 107.197L223 96L224 94L199 85L200 82C190.593 84.7311 176.113 73.3412 167.91 69.1667C146.032 58.0323 124.868 44.4168 106.166 28.3889C96.8275 20.3857 87.88 7.31091 77.625 1.02777C72.5749 -2.06641 61.7821 0 56 0L0 0z"/>
<path style="fill:#ededed; stroke:none;" d="M78 0C82.6933 10.6409 102.071 30.658 114 32L112 34L127 44L126 42L127 42C131.916 51.9676 142.109 52.6658 150 58L147 57L147 58L151 60L150 58L151 58L152 62L161 64C161.63 68.779 172.526 72.7682 177 72C178.399 78.1469 194.425 84.0268 200 82L199 85L214 91L216 89C217.395 92.8917 221.484 94.3522 225.285 95.5833C234.112 98.4417 246.834 105.632 256 103C260.711 109.033 275.692 110.782 283 112.076C306.832 116.298 327.814 120 352 120L352 121L344 121L344 122C358.643 122.121 373.343 125.319 388 125.961C425.938 127.622 469.046 125.798 506 117L504 114L507 116L516 115L533.039 111.11L578 98L576 97L576 96C583.261 97.0362 595.839 94.6112 600 88C607.683 89.1998 613.368 83.8974 620.039 80.9475C633.623 74.9408 648.183 68.1801 663 66L663 65L660 65L660 64L704 62.0008L738 64L738 65L734 65L734 66L742 67L742 66L740 65L744 64L744 68L764 72L764 73L760 73L760 74L778 80L778 81L776 81L776 82L790 88L798 98C802.709 104.568 815.495 119.199 824 119C830.267 131.269 855.701 143.991 869 144L869 145L865 145L865 146L901 159.42L921 162L921 163L910 161L910 162C949.394 172.218 994.038 179.072 1034.17 170.471C1041.2 168.964 1059.34 171.415 1064 166C1067.46 166.766 1075.36 167.291 1076 163L1085 163L1085 162L1083 161L1100 159L1100 158L1098 158L1098 157L1103 158L1102 156L1105 157L1104 155L1108 156L1108 155L1106 154L1107 152L1124 150C1124.59 145.501 1133.91 143.554 1138 144L1139 141L1145 141L1145 140L1142 140L1142 139L1145 137L1149 138C1154.52 127.401 1151 108.81 1151 97L1151 0L78 0z"/>
<path style="fill:#f7f8f7; stroke:none;" d="M80 7L81 8L80 7z"/>
<path style="fill:#ebedec; stroke:none;" d="M86 8L88 10L88 8L86 8z"/>
<path style="fill:#f7f8f7; stroke:none;" d="M88 15L89 16L88 15z"/>
<path style="fill:#ebedec; stroke:none;" d="M94 16L96 18L96 16L94 16M103 24L104 25L103 24M111 31L112 32L111 31M112.667 32.3333L113.333 32.6667L112.667 32.3333M115.667 34.3333L116.333 34.6667L115.667 34.3333M123.667 40.3333L124.333 40.6667L123.667 40.3333z"/>
<path style="fill:#f1f3f3; stroke:none;" d="M126.667 40.3333L127.333 40.6667L126.667 40.3333z"/>
<path style="fill:#ebedec; stroke:none;" d="M126 42L128 44L128 42L126 42M142.667 48.3333L143.333 48.6667L142.667 48.3333M146 56L146 57L150 58L146 56z"/>
<path style="fill:#f1f3f3; stroke:none;" d="M151 56L152 57L151 56z"/>
<path style="fill:#ebedec; stroke:none;" d="M150 58L152 60L152 58L150 58M160 64L161 65L160 64M640.667 64.3333L641.333 64.6667L640.667 64.3333M660 64L660 65L666 65L660 64M733 64L733 65L738 65L733 64z"/>
<path style="fill:#f1f3f3; stroke:none;" d="M742.667 64.3333L743.333 64.6667L742.667 64.3333z"/>
<path style="fill:#ededed; stroke:none;" d="M664 65L665 66L664 65z"/>
<path style="fill:#ebedec; stroke:none;" d="M740 65L740 66L744 67L740 65M648 68L651 67L648 68z"/>
<path style="fill:#f7f8f7; stroke:none;" d="M736.667 67.3333L737.333 67.6667L736.667 67.3333M749 71L749 72L753 73L753 72L749 71M168 72L169 73L168 72z"/>
<path style="fill:#ebedec; stroke:none;" d="M175.667 72.3333L176.333 72.6667L175.667 72.3333M632 74L636 73L632 74M759 72L759 73L764 73L759 72M766.667 74.3333L767.333 74.6667L766.667 74.3333M628 75L629 76L628 75z"/>
<path style="fill:#f7f8f7; stroke:none;" d="M183 79L184 80L183 79z"/>
<path style="fill:#ebedec; stroke:none;" d="M191 80L191 81L194 81L191 80M198.667 80.3333L199.333 80.6667L198.667 80.3333M206.667 80.3333L207.333 80.6667L206.667 80.3333M776.667 80.3333L777.333 80.6667L776.667 80.3333M780 82L780 83L784 85L780 82z"/>
<path style="fill:#f7f8f7; stroke:none;" d="M615 85L616 86L615 85M783 87L784 88L783 87z"/>
<path style="fill:#ebedec; stroke:none;" d="M208 88L209 89L208 88M600.667 88.3333L601.333 88.6667L600.667 88.3333z"/>
<path style="fill:#f7f8f7; stroke:none;" d="M784 88L785 89L784 88z"/>
<path style="fill:#ebedec; stroke:none;" d="M788.667 88.3333L789.333 88.6667L788.667 88.3333M213 89L216 91L213 89M592.667 90.3333L593.333 90.6667L592.667 90.3333M791 90L792 91L791 90M223 92L224 93L223 92z"/>
<path style="fill:#f7f8f7; stroke:none;" d="M223 95L224 96L223 95M590.667 95.3333L591.333 95.6667L590.667 95.3333M792 95L793 96L792 95z"/>
<path style="fill:#ebedec; stroke:none;" d="M232 96L232 97L235 97L232 96z"/>
<path style="fill:#f1f3f3; stroke:none;" d="M239 96L240 97L239 96z"/>
<path style="fill:#ebedec; stroke:none;" d="M568.667 96.3333L569.333 96.6667L568.667 96.3333M576 96L576 97L579 97L576 96M798 96L800 99L800 96L798 96M572 97L572 98L576 98L572 97M240 98L240 99L243 99L240 98M568.667 99.3333L569.333 99.6667L568.667 99.3333M255 103L256 104L255 103z"/>
<path style="fill:#f7f8f7; stroke:none;" d="M565 103L565 104L568 104L565 103M800 103L801 104L800 103z"/>
<path style="fill:#ebedec; stroke:none;" d="M263 104L262 106L264 106L263 104z"/>
<path style="fill:#f1f3f3; stroke:none;" d="M544.667 104.333L545.333 104.667L544.667 104.333z"/>
<path style="fill:#ebedec; stroke:none;" d="M549 104L549 105L554 105L549 104M806 104L807 105L806 104M544 105L547 107L544 105M269 106L269 108L272 108L272 106L269 106M535 108L536 109L535 108z"/>
<path style="fill:#f7f8f7; stroke:none;" d="M272 111L272 112L275 112L272 111z"/>
<path style="fill:#ebedec; stroke:none;" d="M528 111L529 112L528 111z"/>
<path style="fill:#f7f8f7; stroke:none;" d="M535 111L535 112L538 112L535 111M808 111L809 112L808 111M280 112L281 113L280 112z"/>
<path style="fill:#ebedec; stroke:none;" d="M292 112L292 113L296 113L292 112z"/>
<path style="fill:#f1f3f3; stroke:none;" d="M512 112L512 113L515 113L512 112z"/>
<path style="fill:#ebedec; stroke:none;" d="M516 113L516 114L523 113L516 113M815 112L816 113L815 112z"/>
<path style="fill:#ededed; stroke:none;" d="M520.667 113.333L521.333 113.667L520.667 113.333z"/>
<path style="fill:#ebedec; stroke:none;" d="M302.667 114.333L303.333 114.667L302.667 114.333M504 116L508 115L504 116M512 114L513 115L512 114M310.667 115.333L311.333 115.667L310.667 115.333z"/>
<path style="fill:#f7f8f7; stroke:none;" d="M304.667 118.333L305.333 118.667L304.667 118.333M312 119L313 120L312 119z"/>
<path style="fill:#ebedec; stroke:none;" d="M823 119L824 120L823 119M336 120L336 121L352 121L336 120M456 121L456 122L472 121L456 121M826 120L832 124L826 120M352 121L352 122L360 122L352 121M432 123L432 124L440 124L432 123z"/>
<path style="fill:#f7f8f7; stroke:none;" d="M368 126L368 127L376 127L368 126M592 127L592 128L608 128L592 127z"/>
<path style="fill:#fbfcfc; stroke:none;" d="M0 151L0 222L0 365C10.1638 365 23.2152 367.79 33 365.701C41.0945 363.972 49.6914 357.117 57.2847 353.583C71.836 346.81 87.4547 341.002 103 336.924C151.115 324.303 200.747 322.016 250 329.272C286.402 334.634 321.925 346.4 353.961 364.618C367.806 372.492 379.478 383.869 393.285 391.624C417.021 404.957 449.679 412.781 477 410.91C498.387 409.446 520.279 405.56 539.961 396.642C561.449 386.906 580.669 372.158 601.996 361.816C641.061 342.874 683.338 329.274 726 321.31C832.792 301.376 950.466 310.624 1050 355.865C1071.64 365.705 1094.39 376.97 1113.58 391.17C1125.25 399.811 1137.67 414.606 1151 420L1151 230L1151 170L1150 138C1126.54 150.994 1100.31 160.958 1074 166.639C1058.95 169.889 1042.8 169.788 1028 173.718C1019.73 175.914 1011.85 181.704 1004 185.145C988.024 192.151 970.83 197.131 954 201.545C901.28 215.372 840.328 213.926 788 199.091C767.897 193.392 747.175 186.111 729 175.772C712.25 166.243 697.579 153.109 680.714 144.019C660.481 133.114 634.922 127.079 612 127.079C592.364 127.079 570.835 129.211 552.424 136.713C536.11 143.361 522.589 154.179 507 162.03C475.568 177.859 444.106 192.625 410 201.914C314.219 228.003 209.868 229.452 114.17 201.583C89.1827 194.307 64.4561 184.887 40.9992 173.638C26.9201 166.887 14.0845 157.584 0 151z"/>
<path style="fill:#f7f8f7; stroke:none;" d="M616 127L616 128L624 128L616 127M632 128L633 129L632 128z"/>
<path style="fill:#ebedec; stroke:none;" d="M836 128L837 129L836 128z"/>
<path style="fill:#f7f8f7; stroke:none;" d="M576 129L576 130L582 130L576 129M635 129L635 130L640 130L635 129M648 129L649 130L648 129z"/>
<path style="fill:#ebedec; stroke:none;" d="M838 129L842 131L838 129z"/>
<path style="fill:#f7f8f7; stroke:none;" d="M573 130L573 131L576 131L573 130M640 130L640 131L644 131L640 130M568 131L568 132L572 132L568 131M645 131L645 132L648 132L645 131M565 132L565 133L568 133L565 132M632 132L632 133L635 133L632 132M649 132L649 133L652 133L649 132M560 133L560 134L564 134L560 133M640 133L643 135L640 133M653 133L653 134L656 134L653 133M555 135L555 136L560 135L555 135M656 134L656 135L662 136L656 134z"/>
<path style="fill:#ebedec; stroke:none;" d="M847 135L848 136L847 135z"/>
<path style="fill:#f7f8f7; stroke:none;" d="M664 136L665 137L664 136z"/>
<path style="fill:#ebedec; stroke:none;" d="M848.667 136.333L849.333 136.667L848.667 136.333M852 139L856 136L852 139M1136 136L1137 137L1136 136M1144 136L1145 137L1144 136M1149.67 136.333L1150.33 136.667L1149.67 136.333z"/>
<path style="fill:#f7f8f7; stroke:none;" d="M549 137L549 138L552 138L549 137M666.667 137.333L667.333 137.667L666.667 137.333z"/>
<path style="fill:#ebedec; stroke:none;" d="M1145 137L1148 139L1145 137z"/>
<path style="fill:#f1f3f3; stroke:none;" d="M1149.67 137.333L1150.33 137.667L1149.67 137.333z"/>
<path style="fill:#f7f8f7; stroke:none;" d="M547.667 138.333L548.333 138.667L547.667 138.333M669 138L670 139L669 138z"/>
<path style="fill:#f1f3f3; stroke:none;" d="M1148 138L1149 139L1148 138z"/>
<path style="fill:#f7f8f7; stroke:none;" d="M1150.33 138.667L1150.67 139.333L1150.33 138.667M544 139L544 140L547 140L544 139M670.667 139.333L671.333 139.667L670.667 139.333z"/>
<path style="fill:#ebedec; stroke:none;" d="M1142 139L1142 140L1145 140L1142 139z"/>
<path style="fill:#f1f3f3; stroke:none;" d="M1145 139L1145 140L1148 140L1145 139z"/>
<path style="fill:#f7f8f7; stroke:none;" d="M542.667 140.333L543.333 140.667L542.667 140.333M664 140L665 141L664 140M673.667 140.333L674.333 140.667L673.667 140.333M1145 140L1146 141L1145 140M541 141L542 142L541 141M675 141L675 142L680 143L680 142L675 141z"/>
<path style="fill:#ebedec; stroke:none;" d="M1139 141L1140 142L1139 141z"/>
<path style="fill:#f1f3f3; stroke:none;" d="M1142 141L1143 142L1142 141z"/>
<path style="fill:#f7f8f7; stroke:none;" d="M1143.67 141.333L1144.33 141.667L1143.67 141.333M1148 141L1148 143L1150 143L1148 141M539.667 142.333L540.333 142.667L539.667 142.333z"/>
<path style="fill:#f1f3f3; stroke:none;" d="M1138 144L1141 143L1138 144z"/>
<path style="fill:#f7f8f7; stroke:none;" d="M1141.67 142.333L1142.33 142.667L1141.67 142.333M537.667 143.333L538.333 143.667L537.667 143.333M542.667 143.333L543.333 143.667L542.667 143.333M672.667 143.333L673.333 143.667L672.667 143.333z"/>
<path style="fill:#ebedec; stroke:none;" d="M1136 143L1137 144L1136 143z"/>
<path style="fill:#f7f8f7; stroke:none;" d="M1139 143L1140 144L1139 143M1145.67 143.333L1146.33 143.667L1145.67 143.333M532 145L532 146L536 145L532 145M682 144L682 146L684 146L682 144z"/>
<path style="fill:#ebedec; stroke:none;" d="M864 144L864 145L869 145L864 144M1123 148L1123 149L1136 145L1123 148M869 145L872 147L869 145z"/>
<path style="fill:#ededed; stroke:none;" d="M1132 145L1133 146L1132 145z"/>
<path style="fill:#f1f3f3; stroke:none;" d="M1131 146L1131 147L1135 146L1131 146z"/>
<path style="fill:#f7f8f7; stroke:none;" d="M1135 145L1136 146L1135 145M531 146L532 147L531 146M680.333 146.667L680.667 147.333L680.333 146.667M684.667 146.333L685.333 146.667L684.667 146.333z"/>
<path style="fill:#ededed; stroke:none;" d="M1130 146L1131 147L1130 146z"/>
<path style="fill:#f7f8f7; stroke:none;" d="M1133 146L1134 147L1133 146M530 147L531 148L530 147M686.667 147.333L687.333 147.667L686.667 147.333z"/>
<path style="fill:#f1f3f3; stroke:none;" d="M1127 149L1130 148L1127 149z"/>
<path style="fill:#f7f8f7; stroke:none;" d="M1130.67 147.333L1131.33 147.667L1130.67 147.333M528.667 148.333L529.333 148.667L528.667 148.333M688 148L694 152L694 151L688 148z"/>
<path style="fill:#ededed; stroke:none;" d="M1125.67 148.333L1126.33 148.667L1125.67 148.333z"/>
<path style="fill:#f7f8f7; stroke:none;" d="M1128.67 148.333L1129.33 148.667L1128.67 148.333M1135 148L1136 149L1135 148M0 149L3 152L0 149M526.667 149.333L527.333 149.667L526.667 149.333z"/>
<path style="fill:#ebedec; stroke:none;" d="M1120.67 149.333L1121.33 149.667L1120.67 149.333z"/>
<path style="fill:#f1f3f3; stroke:none;" d="M1124.67 149.333L1125.33 149.667L1124.67 149.333z"/>
<path style="fill:#f7f8f7; stroke:none;" d="M1126.67 149.333L1127.33 149.667L1126.67 149.333M525 150L526 151L525 150z"/>
<path style="fill:#f1f3f3; stroke:none;" d="M1122 150L1123 151L1122 150z"/>
<path style="fill:#f7f8f7; stroke:none;" d="M1123.67 150.333L1124.33 150.667L1123.67 150.333M524 151L525 152L524 151M872 151L872 152L876 152L872 151z"/>
<path style="fill:#f1f3f3; stroke:none;" d="M1120 151L1121 152L1120 151z"/>
<path style="fill:#f7f8f7; stroke:none;" d="M1121.67 151.333L1122.33 151.667L1121.67 151.333M1134.67 151.333L1135.33 151.667L1134.67 151.333M0 152L1 153L0 152M3 152L6 154L3 152z"/>
<path style="fill:#ededed; stroke:none;" d="M7 152L8 153L7 152z"/>
<path style="fill:#f7f8f7; stroke:none;" d="M522 152L518 154L518 155L522 152M694 152L697 155L694 152z"/>
<path style="fill:#ebedec; stroke:none;" d="M886.667 152.333L887.333 152.667L886.667 152.333M902.667 152.333L903.333 152.667L902.667 152.333M1096.67 152.333L1097.33 152.667L1096.67 152.333z"/>
<path style="fill:#f1f3f3; stroke:none;" d="M1102 152L1102 153L1105 154L1102 152M1107 152L1107 153L1110 153L1107 152z"/>
<path style="fill:#ebedec; stroke:none;" d="M1106 154L1106 155L1116 153L1106 154z"/>
<path style="fill:#f1f3f3; stroke:none;" d="M1117 152L1118 153L1117 152z"/>
<path style="fill:#f7f8f7; stroke:none;" d="M1118 152L1119 153L1118 152z"/>
<path style="fill:#f1f3f3; stroke:none;" d="M1096 153L1097 154L1096 153z"/>
<path style="fill:#ebedec; stroke:none;" d="M1100 153L1100 154L1103 154L1100 153z"/>
<path style="fill:#f1f3f3; stroke:none;" d="M1112 154L1112 155L1116 154L1112 154z"/>
<path style="fill:#f7f8f7; stroke:none;" d="M1116 153L1117 154L1116 153M6.66667 154.333L7.33333 154.667L6.66667 154.333M527 154L528 155L527 154z"/>
<path style="fill:#ededed; stroke:none;" d="M1110.67 154.333L1111.33 154.667L1110.67 154.333z"/>
<path style="fill:#f7f8f7; stroke:none;" d="M1114 154L1115 155L1114 154M8 155L9 156L8 155M511 160L518 156L511 160M697 155L700 157L697 155z"/>
<path style="fill:#ebedec; stroke:none;" d="M1096 155L1097 156L1096 155z"/>
<path style="fill:#f1f3f3; stroke:none;" d="M1099.67 155.333L1100.33 155.667L1099.67 155.333z"/>
<path style="fill:#ebedec; stroke:none;" d="M1104.67 155.333L1105.33 155.667L1104.67 155.333z"/>
<path style="fill:#f1f3f3; stroke:none;" d="M1108.67 155.333L1109.33 155.667L1108.67 155.333z"/>
<path style="fill:#f7f8f7; stroke:none;" d="M1110.67 155.333L1111.33 155.667L1110.67 155.333M1118.67 155.333L1119.33 155.667L1118.67 155.333M9.66667 156.333L10.3333 156.667L9.66667 156.333M690 156L691 157L690 156z"/>
<path style="fill:#ebedec; stroke:none;" d="M1102.67 156.333L1103.33 156.667L1102.67 156.333z"/>
<path style="fill:#f1f3f3; stroke:none;" d="M1105.67 156.333L1106.33 156.667L1105.67 156.333z"/>
<path style="fill:#f7f8f7; stroke:none;" d="M1107.67 156.333L1108.33 156.667L1107.67 156.333M11 157L14 159L11 157M700 157L700 158L704 159L704 158L700 157M888.667 157.333L889.333 157.667L888.667 157.333z"/>
<path style="fill:#ebedec; stroke:none;" d="M1098 157L1098 158L1101 158L1098 157z"/>
<path style="fill:#f1f3f3; stroke:none;" d="M1103 157L1104 158L1103 157z"/>
<path style="fill:#f7f8f7; stroke:none;" d="M1104.67 157.333L1105.33 157.667L1104.67 157.333M1112.67 157.333L1113.33 157.667L1112.67 157.333z"/>
<path style="fill:#f1f3f3; stroke:none;" d="M1100 158L1101 159L1100 158z"/>
<path style="fill:#f7f8f7; stroke:none;" d="M1101.67 158.333L1102.33 158.667L1101.67 158.333M1119 158L1120 159L1119 158M14.6667 159.333L15.3333 159.667L14.6667 159.333M527 159L528 160L527 159z"/>
<path style="fill:#f1f3f3; stroke:none;" d="M1096.67 159.333L1097.33 159.667L1096.67 159.333z"/>
<path style="fill:#f7f8f7; stroke:none;" d="M1098 159L1099 160L1098 159M16.6667 160.333L17.3333 160.667L16.6667 160.333M23 160L24 161L23 160M509 160L510 161L509 160M704 160L707 162L704 160z"/>
<path style="fill:#ebedec; stroke:none;" d="M909 160L909 161L921 163L909 160M926.667 160.333L927.333 160.667L926.667 160.333M1080.67 160.333L1081.33 160.667L1080.67 160.333z"/>
<path style="fill:#f1f3f3; stroke:none;" d="M1085 160L1085 161L1088 161L1088 162L1085 162L1085 163L1091 162L1091 161L1085 160z"/>
<path style="fill:#ebedec; stroke:none;" d="M1089 160L1090 161L1089 160z"/>
<path style="fill:#f1f3f3; stroke:none;" d="M1092 160L1092 161L1096 161L1092 160z"/>
<path style="fill:#f7f8f7; stroke:none;" d="M18.6667 161.333L19.3333 161.667L18.6667 161.333M504 162L504 163L509 162L504 162z"/>
<path style="fill:#ebedec; stroke:none;" d="M1083 161L1083 162L1088 162L1083 161z"/>
<path style="fill:#f7f8f7; stroke:none;" d="M1091.67 161.333L1092.33 161.667L1091.67 161.333M20 162L21 163L20 162M707.667 162.333L708.333 162.667L707.667 162.333z"/>
<path style="fill:#ebedec; stroke:none;" d="M1076 163L1076 164L1083 163L1076 163z"/>
<path style="fill:#f7f8f7; stroke:none;" d="M1088.67 162.333L1089.33 162.667L1088.67 162.333M21 163L21 164L24 164L21 163M502.667 163.333L503.333 163.667L502.667 163.333M709 163L710 164L709 163z"/>
<path style="fill:#ebedec; stroke:none;" d="M1069 163L1069 164L1073 165L1073 164L1069 163z"/>
<path style="fill:#ededed; stroke:none;" d="M1081 163L1082 164L1081 163z"/>
<path style="fill:#f1f3f3; stroke:none;" d="M1082.67 163.333L1083.33 163.667L1082.67 163.333z"/>
<path style="fill:#f7f8f7; stroke:none;" d="M1084 163L1085 164L1084 163M1095 163L1096 164L1095 163M24 164L24 166L26 166L24 164M501 164L502 165L501 164M710 164L712 166L712 164L710 164z"/>
<path style="fill:#f1f3f3; stroke:none;" d="M1077 164L1077 165L1080 165L1077 164z"/>
<path style="fill:#f7f8f7; stroke:none;" d="M1080.67 164.333L1081.33 164.667L1080.67 164.333M1088 164L1088 165L1092 165L1088 164M498.667 165.333L499.333 165.667L498.667 165.333M507.667 165.333L508.333 165.667L507.667 165.333M704 165L705 166L704 165z"/>
<path style="fill:#f1f3f3; stroke:none;" d="M1074 165L1075 166L1074 165z"/>
<path style="fill:#f7f8f7; stroke:none;" d="M1072 166L1072 167L1078 166L1072 166M26 166L26 167L29 167L26 166M496.667 166.333L497.333 166.667L496.667 166.333M713.667 166.333L714.333 166.667L713.667 166.333z"/>
<path style="fill:#ebedec; stroke:none;" d="M1064.67 166.333L1065.33 166.667L1064.67 166.333z"/>
<path style="fill:#f1f3f3; stroke:none;" d="M1069 166L1069 167L1072 167L1069 166z"/>
<path style="fill:#f7f8f7; stroke:none;" d="M1094.67 166.333L1095.33 166.667L1094.67 166.333M16 167L17 168L16 167M29 167L30 168L29 167M707.667 167.333L708.333 167.667L707.667 167.333M715 167L716 168L715 167z"/>
<path style="fill:#f1f3f3; stroke:none;" d="M1064 167L1064 168L1067 168L1064 167z"/>
<path style="fill:#f7f8f7; stroke:none;" d="M1067.67 167.333L1068.33 167.667L1067.67 167.333M1077 167L1077 168L1080 168L1077 167M1087 167L1087 168L1090 168L1087 167M493.667 168.333L494.333 168.667L493.667 168.333M717 168L718 169L717 168z"/>
<path style="fill:#ebedec; stroke:none;" d="M944 168L944 169L960 170L944 168M1024 168L1025 169L1024 168M1031 168L1032 169L1031 168M1044 169L1044 170L1056 169L1044 169z"/>
<path style="fill:#f1f3f3; stroke:none;" d="M1058 168L1058 169L1061 169L1058 168z"/>
<path style="fill:#f7f8f7; stroke:none;" d="M1061 168L1061 169L1064 169L1061 168M32.6667 169.333L33.3333 169.667L32.6667 169.333M491.667 169.333L492.333 169.667L491.667 169.333M718 169L718 170L723 172L718 169z"/>
<path style="fill:#ededed; stroke:none;" d="M1048.67 169.333L1049.33 169.667L1048.67 169.333z"/>
<path style="fill:#f1f3f3; stroke:none;" d="M1036 171L1036 172L1056 170L1036 171z"/>
<path style="fill:#f7f8f7; stroke:none;" d="M1056 169L1057 170L1056 169M34.6667 170.333L35.3333 170.667L34.6667 170.333M489.667 170.333L490.333 170.667L489.667 170.333z"/>
<path style="fill:#ebedec; stroke:none;" d="M1032 172L1040 171L1032 172z"/>
<path style="fill:#f7f8f7; stroke:none;" d="M1050 170L1050 171L1053 171L1050 170M37 171L38 172L37 171M485 173L488 171L485 173M495.333 171.667L495.667 172.333L495.333 171.667z"/>
<path style="fill:#ebedec; stroke:none;" d="M1024 171L1025 172L1024 171z"/>
<path style="fill:#ededed; stroke:none;" d="M1034.67 171.333L1035.33 171.667L1034.67 171.333z"/>
<path style="fill:#f7f8f7; stroke:none;" d="M1043.67 171.333L1044.33 171.667L1043.67 171.333M1062.67 171.333L1063.33 171.667L1062.67 171.333M32 172L33 173L32 172M38 172L38 173L42 174L42 173L38 172M723.667 172.333L724.333 172.667L723.667 172.333z"/>
<path style="fill:#f1f3f3; stroke:none;" d="M1027 172L1027 173L1032 173L1027 172z"/>
<path style="fill:#f7f8f7; stroke:none;" d="M1032 172L1032 173L1036 173L1032 172M483.667 173.333L484.333 173.667L483.667 173.333M716 173L716 174L719 174L716 173M725 173L726 174L725 173M1020 176L1028 174L1020 176M1030.67 173.333L1031.33 173.667L1030.67 173.333M35.6667 174.333L36.3333 174.667L35.6667 174.333M42 174L42 175L45 175L42 174M480 174L480 175L483 175L480 174M726.667 174.333L727.333 174.667L726.667 174.333M1038 174L1038 175L1043 175L1038 174M1048.67 174.333L1049.33 174.667L1048.67 174.333M1062.67 174.333L1063.33 174.667L1062.67 174.333M45 175L46 176L45 175M55 176L56 177L55 176M477 176L478 177L477 176M730 176L733 178L730 176M48 177L48 178L53 179L48 177M472 178L472 179L477 178L472 178M1016 178L1016 179L1021 178L1016 178M734.667 178.333L735.333 178.667L734.667 178.333M53 179L53 180L56 180L53 179M468 180L468 181L472 180L468 180M736 179L736 180L746 184L746 183L736 179M1014.67 179.333L1015.33 179.667L1014.67 179.333M56 180L57 181L56 180M1012.67 180.333L1013.33 180.667L1012.67 180.333M58.6667 181.333L59.3333 181.667L58.6667 181.333M466.667 181.333L467.333 181.667L466.667 181.333M475.667 181.333L476.333 181.667L475.667 181.333M730 181L730 182L733 182L730 181M1010 181L1011 182L1010 181M1015 181L1016 182L1015 181M1019.67 181.333L1020.33 181.667L1019.67 181.333M60.6667 182.333L61.3333 182.667L60.6667 182.333M461 183L461 184L466 183L461 183M1000 185L1000 186L1010 183L1000 185M50.6667 183.333L51.3333 183.667L50.6667 183.333M735 183L736 184L735 183M1011.67 183.333L1012.33 183.667L1011.67 183.333M66 184L67 185L66 184M456 185L456 186L461 185L456 185M664 184L664 185L672 185L664 184M696 184L696 185L704 185L696 184M747 184L747 185L751 186L751 185L747 184M67 185L67 186L72 187L72 186L67 185M453 186L453 187L456 187L453 186M719 186L720 187L719 186M752 186L753 187L752 186M999 186L1000 187L999 186M73.6667 187.333L74.3333 187.667L73.6667 187.333M451.667 187.333L452.333 187.667L451.667 187.333M728 187L729 188L728 187M754.667 187.333L755.333 187.667L754.667 187.333M996.667 187.333L997.333 187.667L996.667 187.333M75.6667 188.333L76.3333 188.667L75.6667 188.333M448 188L448 189L451 189L448 188M640 188L641 189L640 188M756.667 188.333L757.333 188.667L756.667 188.333M994.667 188.333L995.333 188.667L994.667 188.333M67.6667 189.333L68.3333 189.667L67.6667 189.333M78.6667 189.333L79.3333 189.667L78.6667 189.333M445.667 189.333L446.333 189.667L445.667 189.333M456.667 189.333L457.333 189.667L456.667 189.333M759 189L759 190L762 190L759 189M988 190L988 191L993 190L988 190M80 190L80 191L85 192L80 190M443.667 190.333L444.333 190.667L443.667 190.333M762 190L762 191L766 192L766 191L762 190M441.667 191.333L442.333 191.667L441.667 191.333M454.667 191.333L455.333 191.667L454.667 191.333M986.667 191.333L987.333 191.667L986.667 191.333M8.66667 192.333L9.33333 192.667L8.66667 192.333M96 192L96 193L99 193L96 192M437 192L438 193L437 192M628 192L628 193L632 193L628 192M741 192L744 194L741 192M768.667 192.333L769.333 192.667L768.667 192.333M982.667 192.333L983.333 192.667L982.667 192.333M89 193L89 194L92 194L89 193M431 194L431 195L437 194L431 194M770.667 193.333L771.333 193.667L770.667 193.333M979 193L979 194L982 194L979 193M93 194L94 195L93 194M621 194L621 195L625 195L621 194M773 194L774 195L773 194M977.667 194.333L978.333 194.667L977.667 194.333M94 195L94 196L99 196L94 195M428.667 195.333L429.333 195.667L428.667 195.333M768 195L768 197L770 197L768 195M777.667 195.333L778.333 195.667L777.667 195.333M973 195L973 196L976 196L973 195M983 195L984 196L983 195M99.6667 196.333L100.333 196.667L99.6667 196.333M426.667 196.333L427.333 196.667L426.667 196.333M616 196L617 197L616 196M779 196L779 197L782 197L779 196M960.667 196.333L961.333 196.667L960.667 196.333z"/>
<path style="fill:#ededed; stroke:none;" d="M966.667 196.333L967.333 196.667L966.667 196.333z"/>
<path style="fill:#f7f8f7; stroke:none;" d="M971.667 196.333L972.333 196.667L971.667 196.333M101 197L101 198L104 198L101 197M419 198L419 199L425 198L419 198M435.667 197.333L436.333 197.667L435.667 197.333M772 197L772 199L774 199L774 197L772 197M776.333 197.667L776.667 198.333L776.333 197.667M783 197L784 198L783 197M966.667 197.333L967.333 197.667L966.667 197.333M104 198L104 199L109 200L104 198M785 198L785 199L792 200L785 198M963.667 198.333L964.333 198.667L963.667 198.333M416 199L416 200L419 200L416 199M768 199L769 200L768 199M20 200L21 201L20 200M112 200L118 202L112 200M408 201L408 202L414 201L408 201M600.667 200.333L601.333 200.667L600.667 200.333M610 200L611 201L610 200M793 200L793 201L796 201L793 200M949 201L949 202L957 201L949 201M23 201L24 204L23 201M797 201L797 202L803 202L797 201M118.667 202.333L119.333 202.667L118.667 202.333M405 202L405 203L408 203L405 202M803 202L803 203L806 203L803 202M947.667 202.333L948.333 202.667L947.667 202.333M122 203L122 204L128 205L128 204L122 203M400 203L400 204L404 204L400 203M808 203L808 204L811 204L808 203M941 203L941 204L944 204L941 203M398.667 204.333L399.333 204.667L398.667 204.333M767 204L768 205L767 204M800 204L801 205L800 204M812 204L812 205L816 205L812 204M936 204L936 205L940 205L936 204M129 205L129 206L132 206L129 205M393 205L393 206L397 206L393 205M819 205L819 206L829 207L819 205M928 205L928 206L934 206L928 205M952.667 205.333L953.333 205.667L952.667 205.333M132 206L132 207L138 207L132 206M390.667 206.333L391.333 206.667L390.667 206.333M923 206L923 207L928 207L923 206M126.667 207.333L127.333 207.667L126.667 207.333M138.667 207.333L139.333 207.667L138.667 207.333M385 207L385 208L389 208L385 207M813 207L813 208L816 208L813 207M936 207L936 208L939 208L936 207M31 208L32 209L31 208M144 208L145 209L144 208M380 208L380 209L383 209L380 208M592 211L596 209L592 211M772 208L773 209L772 208M840 208L840 209L848 209L840 208M904 208L904 209L912 209L904 208M147 209L147 210L152 210L147 209M376 209L376 210L379 210L376 209M848 209L848 210L864 210L848 209M896 209L896 210L904 210L896 209M152 210L152 211L155 211L152 210M372 210L372 211L376 211L372 210M872 210L872 211L880 211L872 210M156 211L156 212L161 212L156 211M365 211L365 212L370 212L365 211M144 212L144 213L147 213L144 212M162 212L162 213L172 214L162 212M360 212L360 213L364 213L360 212M909 212L909 213L912 213L909 212M354 213L354 214L358 214L354 213M373 213L373 215L376 215L376 213L373 213M172 214L172 215L178 215L172 214M349 214L349 215L354 215L349 214M179 215L179 216L183 216L179 215M344 215L344 216L348 216L344 215M360 215L360 216L363 216L360 215M910.667 215.333L911.333 215.667L910.667 215.333M184 216L184 217L192 217L184 216M335 216L336 217L335 216M576 216L577 217L576 216M783 216L784 217L783 216M194 217L194 218L200 218L194 217M328 217L328 218L333 218L328 217M47.6667 218.333L48.3333 218.667L47.6667 218.333M200 218L200 219L208 219L200 218M320 218L320 219L328 219L320 218M216 219L216 220L221 220L216 219M304 219L304 220L312 220L304 219M221 220L221 221L232 221L221 220M333 220L333 221L336 221L333 220M248 221L248 222L280 222L248 221M296 222L296 223L304 223L296 222M56 224L56 225L61 225L56 224M568.667 224.333L569.333 224.667L568.667 224.333M795 224L796 226L797 226L798 224L795 224M62 225L62 227L64 227L64 225L62 225M72 232L72 233L77 233L72 232M552.667 232.333L553.333 232.667L552.667 232.333M815 232L816 233L815 232M1128 232L1129 233L1128 232M78 233L78 235L80 235L80 233L78 233M88.6667 240.333L89.3333 240.667L88.6667 240.333M536.667 240.333L537.333 240.667L536.667 240.333M94 241L94 243L96 243L96 241L94 241M838 247L838 248L845 249L845 248L838 247M109 248L109 249L112 249L109 248M518.667 248.333L519.333 248.667L518.667 248.333M1101 248L1101 249L1104 249L1101 248M509 250L509 251L514 249L509 250M846 249L846 251L848 251L848 249L846 249M504 252L505 253L504 252M855 252L856 253L855 252M1088 252L1089 253L1088 252M488 256L488 257L498 257L488 256M861 256L861 257L864 257L861 256M1080 256L1080 257L1083 257L1080 256M480 260L480 262L482 262L482 260L480 260M151 261L152 262L151 261M156 264L156 265L160 265L156 264M464 265L464 266L472 265L464 265M894.667 264.333L895.333 264.667L894.667 264.333M911 264L912 265L911 264M1048 264L1048 265L1051 265L1048 264M448 268L449 269L448 268M678 271L678 272L688 272L678 271M864 271L864 272L875 272L864 271M188 272L188 273L192 273L188 272M432 272L432 273L437 273L432 272M440 272L441 273L440 272M952 272L952 273L1000 273C987.586 267.791 965.526 272 952 272M896 276L899 278L896 276M640 279L640 280L648 279L640 279M904 278L904 279L913 280L913 279L904 278M96 279L96 280L104 280L96 279M184 279L184 280L188 280L184 279M384 280L384 281L392 281L384 280M240 281L240 282L248 282L240 281M920 283L921 284L920 283M928 285L929 286L928 285M52 287L52 288L56 288L52 287M224 287L224 288L228 288L224 287M612 287L612 288L616 288L612 287M936.667 287.333L937.333 287.667L936.667 287.333M39 291L39 292L42 292L39 291M31 293L27 295L27 296C29.4499 295.88 32.0951 295.905 31 293M232 295L232 296L235 296L232 295M248.667 295.333L249.333 295.667L248.667 295.333M589 295L589 296L592 296L589 295M583 299L584 300L583 299M568.667 303.333L569.333 303.667L568.667 303.333M981 303L981 304L984 304L981 303M1000.67 311.333L1001.33 311.667L1000.67 311.333M776 314L776 315L808 313L776 314z"/>
<path style="fill:#f1f3f3; stroke:none;" d="M34 366L34 367C83.6148 373.27 130.411 385.518 174.004 410.742C188.33 419.031 201.234 430.082 213.565 441.015C219.634 446.396 224.439 454.855 233 456C234.658 464.845 253.587 470.328 261 473.488C288.018 485.008 318.829 489.325 348 486.05C355.334 485.227 371.279 485.208 376 479C386.215 481.553 401.357 472.922 410.17 468.231C429.071 458.171 449.944 450.753 470 443.436C528 422.275 593.562 413.735 655 413.004C726.186 412.157 799.099 425.521 866 449.439C889.188 457.729 911.513 469.374 932.911 481.294C940.333 485.429 951.447 495.879 960 495C961.948 501.983 970.961 505.285 976.255 509.631C989.992 520.91 1011.52 534.11 1020 550L1151 550L1151 440C1151 426 1147.63 408.254 1130 406C1128.23 402.386 1126.12 400.106 1122 400C1116.77 389.749 1101.08 383.81 1091.71 377.91C1060.22 358.061 1024.42 345.186 989 334.495C882.397 302.319 762.48 304.437 657 340.004C631.153 348.719 605.932 359.442 582 372.576C566.838 380.896 552.494 392.326 536.424 398.781C512.243 408.495 486.963 412.098 461 410.961C438.552 409.978 414.632 403.877 395 392.827C369.394 378.416 348.241 358.973 320 348.644C241.753 320.026 159.211 318.919 80 344.594C63.8202 349.839 49.1395 358.586 34 366z"/>
<path style="fill:#f7f8f7; stroke:none;" d="M848 312L848 313L864 313L848 312M901 312L901 313L904 313L901 312M864 313L864 314L880 314L864 313M880 314L880 315L890 315L880 314M920.667 314.333L921.333 314.667L920.667 314.333M741 315L741 316L744 316L741 315M764 315L764 316L768 316L764 315M893 315L893 316L898 316L893 315M294 316L296 318L296 316L294 316M736 316L737 317L736 316M758 316L758 317L764 317L758 316M899 316L899 317L906 317L899 316M749 317L749 318L756 318L749 317M908 317L908 318L915 318L908 317M742 318L742 319L748 319L742 318M916 318L916 319L925 320L916 318M296 319L297 320L296 319M739.667 319.333L740.333 319.667L739.667 319.333z"/>
<path style="fill:#ededed; stroke:none;" d="M751 319L752 320L751 319M912 319L913 320L912 319z"/>
<path style="fill:#f7f8f7; stroke:none;" d="M237 320L240 322L237 320M717 320L717 321L720 321L717 320M731 320L731 321L735 321L731 320M929 320L929 321L933 321L929 320M944 320L944 321L947 321L944 320M724 321L724 322L730 322L724 321M934 321L934 322L940 322L934 321M702.667 322.333L703.333 322.667L702.667 322.333M721 322L721 323L724 323L721 322M940 322L940 323L943 323L940 322M960.667 322.333L961.333 322.667L960.667 322.333M152 323L152 324L156 324L152 323M224.667 323.333L225.333 323.667L224.667 323.333M716 323L716 324L720 324L716 323M944 323L944 324L948 324L944 323M1024 323L1025 324L1024 323M712 324L712 325L715 325L712 324M949 324L949 325L952 325L949 324M176 325L176 326L216 326C205.488 321.589 187.434 325 176 325M312 325L313 326L312 325M708.667 325.333L709.333 325.667L708.667 325.333M955.667 325.333L956.333 325.667L955.667 325.333M158 326L158 327L168 327L158 326M224 326L224 327L229 327L224 326M232 326L235 328L232 326M699 327L699 328L707 327L699 327M957 326L957 327L965 328L957 326M154 327L154 328L157 328L154 327M314.667 327.333L315.333 327.667L314.667 327.333M527 327L528 328L527 327M1032 327L1033 328L1032 327M128.667 328.333L129.333 328.667L128.667 328.333M144 328L144 329L149 329L144 328M241 328L241 329L245 329L241 328M263 328L264 329L263 328M272 328L272 329L275 329L272 328M689 329L689 330L696 329L689 329M968 328L968 329L971 329L968 328M120.667 329.333L121.333 329.667L120.667 329.333M136 329L136 330L144 330L136 329M246 329L246 330L252 330L246 329M971 329L971 330L978 331L978 330L971 329M133 330L133 331L136 331L133 330M252 330L252 331L258 331L252 330M686.667 330.333L687.333 330.667L686.667 330.333M112.667 331.333L113.333 331.667L112.667 331.333M123 332L123 333L131 332L123 332M260 331L260 332L264 332L260 331M683.667 331.333L684.333 331.667L683.667 331.333M979.667 331.333L980.333 331.667L979.667 331.333M991 331L992 332L991 331M264 332L264 333L268 333L264 332M511 332L512 335L511 332M680 332L680 333L683 333L680 332M981 332L981 333L984 333L981 332M116 333L116 334L119 334L116 333M269 333L269 334L272 334L269 333M676 333L676 334L679 334L676 333M986.667 333.333L987.333 333.667L986.667 333.333M112 334L112 335L116 335L112 334M272 334L272 335L277 335L272 334M672 334L672 335L676 335L672 334M988 334L988 335L994 336L988 334M278.667 335.333L279.333 335.667L278.667 335.333M508 335L509 336L508 335M680 335L681 336L680 335M983 335L984 336L983 335M1040 335L1041 336L1040 335M94.6667 336.333L95.3333 336.667L94.6667 336.333M98 338L98 339L108 337L98 338M282 336L282 337L285 337L282 336M301 336L301 337L304 337L301 336M309 336L309 337L312 337L309 336M648.667 336.333L649.333 336.667L648.667 336.333M666.667 336.333L667.333 336.667L666.667 336.333M997 336L997 337L1008 340L1008 339L997 336M1023 336L1024 337L1023 336M1048 336L1049 337L1048 336M286 337L286 338L296 340L286 337M656 339L656 340L666 338L656 339M95 339L96 340L95 339M1051 339L1052 340L1051 339M88 341L88 342L94 341L88 341M296 340L296 341L308 344L296 340M651 341L651 342L656 341L651 341M1008 340L1008 341L1014 342L1008 340M1023 341L1024 342L1023 341M1048 341L1049 342L1048 341M83 343L83 344L88 343L83 343M647 342L647 343L651 343L647 342M1014 342L1014 343L1019 344L1014 342M328.667 343.333L329.333 343.667L328.667 343.333M336.667 343.333L337.333 343.667L336.667 343.333M494.667 343.333L495.333 343.667L494.667 343.333M503 343L504 344L503 343M646 343L647 344L646 343M1056 343L1057 344L1056 343M67.6667 344.333L68.3333 344.667L67.6667 344.333M308 344L308 345L319 348L308 344M632 344L633 345L632 344M642.667 344.333L643.333 344.667L642.667 344.333M1020.67 344.333L1021.33 344.667L1020.67 344.333M76.6667 345.333L77.3333 345.667L76.6667 345.333M640.667 345.333L641.333 345.667L640.667 345.333M1022 345L1022 346L1026 346L1022 345M74.6667 346.333L75.3333 346.667L74.6667 346.333M637 346L637 347L640 347L637 346M1026.67 346.333L1027.33 346.667L1026.67 346.333M69 348L69 349L73 348L69 348M327 347L328 348L327 347M344.667 347.333L345.333 347.667L344.667 347.333M635.667 347.333L636.333 347.667L635.667 347.333M1028.67 347.333L1029.33 347.667L1028.67 347.333M630 349L630 350L635 349L630 349M1031 348L1032 349L1031 348M1039 348L1040 349L1039 348M66 349L66 350L69 350L66 349M322 349L323 350L322 349M1033.67 349.333L1034.33 349.667L1033.67 349.333M1066 349L1064 351L1064 352L1068 349L1066 349M64.6667 350.333L65.3333 350.667L64.6667 350.333M323.667 350.333L324.333 350.667L323.667 350.333M627.667 350.333L628.333 350.667L627.667 350.333M1035.67 350.333L1036.33 350.667L1035.67 350.333M326.667 351.333L327.333 351.667L326.667 351.333M352.667 351.333L353.333 351.667L352.667 351.333M478.667 351.333L479.333 351.667L478.667 351.333M626 351L627 352L626 351M1038 351L1039 352L1038 351M40 352L41 353L40 352M56 353L56 354L61 353L56 353M328.667 352.333L329.333 352.667L328.667 352.333M335 352L336 353L335 352M611.667 352.333L612.333 352.667L611.667 352.333M623 352L624 353L623 352M1040.67 352.333L1041.33 352.667L1040.67 352.333M331.667 353.333L332.333 353.667L331.667 353.333M620.667 353.333L621.333 353.667L620.667 353.333M1043.67 353.333L1044.33 353.667L1043.67 353.333M333 354L334 355L333 354M618 354L619 355L618 354M1045.67 354.333L1046.33 354.667L1045.67 354.333M53 355L54 356L53 355M335.667 355.333L336.333 355.667L335.667 355.333M613 356L613 357L617 356L613 356M1048.67 355.333L1049.33 355.667L1048.67 355.333M51.6667 356.333L52.3333 356.667L51.6667 356.333M337.667 356.333L338.333 356.667L337.667 356.333M368 356L371 358L368 356M1050 356L1050 357L1054 358L1054 357L1050 356M40 357L41 358L40 357M49 357L50 358L49 357M339 357L342 359L339 357M463 357L464 358L463 357M610 357L610 358L613 358L610 357M45 360L48 359L45 360M376 358L376 359L387 360L387 359L376 358M608.667 358.333L609.333 358.667L608.667 358.333M1054.67 358.333L1055.33 358.667L1054.67 358.333M51.6667 359.333L52.3333 359.667L51.6667 359.333M343 359L344 360L343 359M451 359L451 360L456 360L451 359M32 360L33 361L32 360M39 360L40 361L39 360M43 360L44 361L43 360M345.667 360.333L346.333 360.667L345.667 360.333M350 360L350 361L355 361L350 360M602 361L602 362L606 361L602 361M1058 360L1059 361L1058 360M1080 360L1081 361L1080 360M41.6667 361.333L42.3333 361.667L41.6667 361.333M347.667 361.333L348.333 361.667L347.667 361.333M595.667 361.333L596.333 361.667L595.667 361.333M1061 361L1062 362L1061 361M1068 361L1069 362L1068 361M349 362L350 363L349 362M600.667 362.333L601.333 362.667L600.667 362.333M1062.67 362.333L1063.33 362.667L1062.67 362.333M32.6667 363.333L33.3333 363.667L32.6667 363.333M36 365L39 363L36 365M350.667 363.333L351.333 363.667L350.667 363.333M592 363L593 364L592 363M598.667 363.333L599.333 363.667L598.667 363.333M1065 363L1066 364L1065 363M1083 363L1084 364L1083 363M352 364L352 365L356 366L356 365L352 364M597 364L598 365L597 364M1066 364L1067 365L1066 364z"/>
<path style="fill:#f1f3f3; stroke:none;" d="M0 365L0 366L16 366L0 365z"/>
<path style="fill:#f7f8f7; stroke:none;" d="M16 365L16 366L24 366L16 365M35 365L36 366L35 365M594.667 365.333L595.333 365.667L594.667 365.333M1069 365L1070 366L1069 365M1080 365L1081 366L1080 365z"/>
<path style="fill:#ebedec; stroke:none;" d="M0 366L0 367L31 368L0 366z"/>
<path style="fill:#ededed; stroke:none;" d="M16 366L16 367L24 367L16 366z"/>
<path style="fill:#f1f3f3; stroke:none;" d="M24 366L24 367L30 367L24 366z"/>
<path style="fill:#f7f8f7; stroke:none;" d="M30 366L30 367L34 367L30 366M356 366L358 368L358 366L356 366M592.667 366.333L593.333 366.667L592.667 366.333M1070.67 366.333L1071.33 366.667L1070.67 366.333z"/>
<path style="fill:#ededed; stroke:none;" d="M0 367L0 550L780 550L963 550L1006 550C1010.08 550 1018.99 551.786 1020 547L1019 547L1018 549L1012 541L1014 544L1008 538L1011 540C1009.28 536.562 1001.79 528.054 1001 532L1000 532L1000 528L978 510L974 510L976 509L976 508L965 504L965 503L967 502L951 495L951 494L955 495L955 494L941 488L941 487L943 486C932.36 481.137 921.993 470.733 910 472L910 471L912 470C896.931 460.07 871.176 446.941 853 448L853 447L856 447L856 446L828 440L828 439L832 439L832 438C825.136 437.397 818.768 434.133 812.039 432.644C792.342 428.286 772.897 423.577 753 420.325C698.431 411.405 643.736 412.618 589 417.83C570.854 419.558 552.882 422.084 535 425.881C527.205 427.536 517.092 428.552 511 434C506.073 430.47 496.365 435.377 491 437.115C474.465 442.473 456.814 450.353 440 454L440 455L444 455L444 456L430 459L432 462L427 464L426 462L428 461L428 460L423 462L425 463L425 464C413.603 462.382 403.109 472.627 392 475L392 476L394 476L394 477L384 478L384 479L388 479L388 480L344 486L344 487L352 487L352 488C331.249 488 310.255 486.694 290 482.282C284.383 481.058 274.441 481.111 270 478L274 479L274 478L238 464L240 463L240 462L201 430L202 432L201 432C198.537 426.961 195.597 424.63 190 424L192 422L188 420L189 423L184 424L187 419L178 416L178 415L180 414L177 412L177 416L176 411L164 408L164 407L168 407L168 406L148 400L148 399L152 399L152 398L130 389L128 391C125.926 385.215 117.378 383.47 112 385C106.607 377.67 88.5199 374.784 80 376L80 375L82 375L82 374L73 373L73 374L76 374L76 375L72 375L72 372L0 367z"/>
<path style="fill:#ebedec; stroke:none;" d="M32 367L32 368L36 368L32 367z"/>
<path style="fill:#f7f8f7; stroke:none;" d="M78.6667 368.333L79.3333 368.667L78.6667 368.333M375 368L376 369L375 368M589 368L590 369L589 368M1074 368L1075 369L1074 368M361 369L362 370L361 369M367 369L368 370L367 369M576.333 369.667L576.667 370.333L576.333 369.667M586 369L586 370L589 370L586 369M1077 369L1078 370L1077 369M1083.67 369.333L1084.33 369.667L1083.67 369.333M362 370L363 371L362 370M582 371L582 372L586 371L582 371M1078.67 370.333L1079.33 370.667L1078.67 370.333M364.667 371.333L365.333 371.667L364.667 371.333M1080.67 371.333L1081.33 371.667L1080.67 371.333z"/>
<path style="fill:#ebedec; stroke:none;" d="M64 372L68 374L68 373L64 372z"/>
<path style="fill:#f7f8f7; stroke:none;" d="M366 372L367 373L366 372M579 374L582 372L579 374M1075.67 372.333L1076.33 372.667L1075.67 372.333M1082 372L1083 373L1082 372z"/>
<path style="fill:#ebedec; stroke:none;" d="M72 373L76 375L76 374L72 373z"/>
<path style="fill:#f7f8f7; stroke:none;" d="M375 373L376 374L375 373M1084.67 373.333L1085.33 373.667L1084.67 373.333M368 374L368 375L371 376L368 374M576 376L579 374L576 376M1086.67 374.333L1087.33 374.667L1086.67 374.333M1096 374L1099 377L1096 374z"/>
<path style="fill:#ebedec; stroke:none;" d="M80 375L80 376L83 376L80 375z"/>
<path style="fill:#f7f8f7; stroke:none;" d="M96.6667 376.333L97.3333 376.667L96.6667 376.333M372 376L373 377L372 376M574 376L575 377L574 376M1089 376L1089 377L1093 378L1093 377L1089 376M373 377L374 378L373 377M560.333 377.667L560.667 378.333L560.333 377.667M567 377L568 378L567 377M572.667 377.333L573.333 377.667L572.667 377.333M374.667 378.333L375.333 378.667L374.667 378.333M569 380L572 378L569 380M1093 378L1093 380L1095 380L1093 378M383 379L384 380L383 379M563.667 379.333L564.333 379.667L563.667 379.333M377 380L378 381L377 380M1096.67 380.333L1097.33 380.667L1096.67 380.333M1103 380L1106 384L1103 380M378 381L379 382L378 381M560.333 381.667L560.667 382.333L560.333 381.667M566 381L567 382L566 381M1098 381L1099 382L1098 381z"/>
<path style="fill:#ebedec; stroke:none;" d="M104 382L108 384L104 382z"/>
<path style="fill:#f7f8f7; stroke:none;" d="M379 382L381 384L381 382L379 382M564.667 382.333L565.333 382.667L564.667 382.333M1099 382L1102 384L1099 382M562 383L563 384L562 383z"/>
<path style="fill:#ebedec; stroke:none;" d="M112 384L113 385L112 384z"/>
<path style="fill:#f7f8f7; stroke:none;" d="M120 384L121 385L120 384M382 384L385 386L382 384M558 385L558 386L562 385L558 385M1104 385L1105 386L1104 385M385 386L388 388L385 386M557 386L558 387L557 386M1105.67 386.333L1106.33 386.667L1105.67 386.333z"/>
<path style="fill:#ebedec; stroke:none;" d="M120 387L121 388L120 387z"/>
<path style="fill:#f7f8f7; stroke:none;" d="M556 387L557 388L556 387M1107.67 387.333L1108.33 387.667L1107.67 387.333M388 388L391 390L388 388M553 390L556 388L553 390M1109 388L1110 389L1109 388z"/>
<path style="fill:#ebedec; stroke:none;" d="M128 389L131 391L128 389z"/>
<path style="fill:#f7f8f7; stroke:none;" d="M1110 389L1111 390L1110 389M391 390L392 391L391 390M551 390L552 391L551 390M1112 390L1112 392L1114 392L1114 390L1112 390z"/>
<path style="fill:#ebedec; stroke:none;" d="M135 391L136 392L135 391z"/>
<path style="fill:#f7f8f7; stroke:none;" d="M550 391L551 392L550 391M142.667 392.333L143.333 392.667L142.667 392.333M394 392L394 393L398 394L398 393L394 392M414.667 392.333L415.333 392.667L414.667 392.333M528 392L529 393L528 392M544 393L544 394L549 393L544 393M1115 392L1115 394L1117 394L1115 392M403.667 393.333L404.333 393.667L403.667 393.333M538 393L538 394L541 394L538 393M398.667 394.333L399.333 394.667L398.667 394.333M1117 394L1118 395L1117 394M400.667 395.333L401.333 395.667L400.667 395.333M407 395L408 396L407 395M536 395L537 396L536 395M542 395L543 396L542 395M1118 395L1119 396L1118 395M402 396L403 397L402 396M415 396L414 398L416 398L415 396M540.667 396.333L541.333 396.667L540.667 396.333M1120 396L1121 397L1120 396z"/>
<path style="fill:#ebedec; stroke:none;" d="M144.667 397.333L145.333 397.667L144.667 397.333z"/>
<path style="fill:#f7f8f7; stroke:none;" d="M404.667 397.333L405.333 397.667L404.667 397.333M528 397L529 398L528 397M538 397L539 398L538 397M1121 397L1122 398L1121 397M406 398L406 399L412 400L412 398L406 398M533 400L538 399L533 400M1122.67 398.333L1123.33 398.667L1122.67 398.333z"/>
<path style="fill:#ebedec; stroke:none;" d="M148 399L148 400L152 400L148 399z"/>
<path style="fill:#ededed; stroke:none;" d="M536 399L537 400L536 399M1122 399L1123 400L1122 399z"/>
<path style="fill:#f7f8f7; stroke:none;" d="M1124 399L1125 400L1124 399M412 400L412 401L416 402L416 401L412 400M512 400L512 401L515 401L512 400M526 401L526 402L532 401L526 401M422.667 401.333L423.333 401.667L422.667 401.333M1126.67 401.333L1127.33 401.667L1126.67 401.333M416 402L416 403L420 403L416 402M520 403L520 404L526 403L520 403M1128 402L1129 403L1128 402M420.667 403.333L421.333 403.667L420.667 403.333M431 403L432 404L431 403M1129 403L1130 404L1129 403M424 404L424 405L435 407L424 404M509 406L509 407L520 405L509 406M1130 404L1131 405L1130 404z"/>
<path style="fill:#ebedec; stroke:none;" d="M160 405L163 407L160 405z"/>
<path style="fill:#f7f8f7; stroke:none;" d="M1126 405L1127 406L1126 405M1128.33 405.667L1128.67 406.333L1128.33 405.667z"/>
<path style="fill:#ededed; stroke:none;" d="M1130 405L1131 406L1130 405z"/>
<path style="fill:#f7f8f7; stroke:none;" d="M1132 405L1133 406L1132 405z"/>
<path style="fill:#ededed; stroke:none;" d="M1131 406L1132 407L1131 406z"/>
<path style="fill:#f7f8f7; stroke:none;" d="M1133 406L1134 407L1133 406z"/>
<path style="fill:#ebedec; stroke:none;" d="M164 407L164 408L168 408L164 407z"/>
<path style="fill:#f7f8f7; stroke:none;" d="M436 407L436 408L439 408L436 407M505 407L505 408L508 408L505 407M1134 407L1135 408L1134 407M442 408L442 409L445 409L442 408M456 408L456 409L464 409L456 408M499 408L499 409L502 409L499 408M446 409L446 410L456 410L446 409M491 409L491 410L498 410L491 409M456 410L456 411L464 411L456 410M480 410L480 411L491 411L480 410z"/>
<path style="fill:#ededed; stroke:none;" d="M1136 410L1137 411L1136 410z"/>
<path style="fill:#f7f8f7; stroke:none;" d="M1139 411L1140 412L1139 411z"/>
<path style="fill:#ebedec; stroke:none;" d="M176 412L175 413L178 415L176 412z"/>
<path style="fill:#f7f8f7; stroke:none;" d="M1136 412L1137 413L1136 412z"/>
<path style="fill:#ededed; stroke:none;" d="M1138 412L1139 413L1138 412z"/>
<path style="fill:#f7f8f7; stroke:none;" d="M1140 412L1141 413L1140 412M1142 413L1143 414L1142 413z"/>
<path style="fill:#ebedec; stroke:none;" d="M656 414L656 415L696 416C685.783 411.713 667.205 414 656 414z"/>
<path style="fill:#f7f8f7; stroke:none;" d="M1143 414L1144 415L1143 414z"/>
<path style="fill:#f1f3f3; stroke:none;" d="M176 415L177 416L176 415z"/>
<path style="fill:#ebedec; stroke:none;" d="M178 415L178 416L181 416L178 415M624 415L624 416L648 416L624 415z"/>
<path style="fill:#f7f8f7; stroke:none;" d="M1144 415L1145 416L1144 415M1145 416L1146 417L1145 416M1147 418L1148 419L1147 418M1148 419L1149 420L1148 419z"/>
<path style="fill:#ebedec; stroke:none;" d="M186 420L184 424L189 423L188 420L186 420z"/>
<path style="fill:#f7f8f7; stroke:none;" d="M1149.67 420.333L1150.33 420.667L1149.67 420.333z"/>
<path style="fill:#ebedec; stroke:none;" d="M573 421L573 422L576 422L573 421M552 423L552 424L562 424L552 423M190.667 423.333L191.333 423.667L190.667 423.333M760 423L760 424L763 424L760 423M192 424L193 425L192 424z"/>
<path style="fill:#f7f8f7; stroke:none;" d="M535 424L536 425L535 424M784 424L784 425L787 425L784 424z"/>
<path style="fill:#ebedec; stroke:none;" d="M776 426L779 428L779 427L776 426M528 429L528 430L531 430L528 429M792 431L795 429L792 431M200 430L200 432L202 432L200 430M517 431L517 432L520 432L517 431z"/>
<path style="fill:#f1f3f3; stroke:none;" d="M792.667 431.333L793.333 431.667L792.667 431.333z"/>
<path style="fill:#ebedec; stroke:none;" d="M797 431L797 432L802 432L797 431z"/>
<path style="fill:#f7f8f7; stroke:none;" d="M207 432L208 433L207 432z"/>
<path style="fill:#ebedec; stroke:none;" d="M510 432L512 434L512 432L510 432M808 432L809 433L808 432z"/>
<path style="fill:#f7f8f7; stroke:none;" d="M815 432L815 433L818 433L815 432z"/>
<path style="fill:#ebedec; stroke:none;" d="M815 435L816 436L815 435M493 437L493 438L497 438L493 437M209 439L212 441L212 440L209 439M486 439L486 440L491 440L486 439z"/>
<path style="fill:#f1f3f3; stroke:none;" d="M494.667 439.333L495.333 439.667L494.667 439.333z"/>
<path style="fill:#ebedec; stroke:none;" d="M502.667 439.333L503.333 439.667L502.667 439.333M828 439L828 440L834 440L828 439z"/>
<path style="fill:#f7f8f7; stroke:none;" d="M472 440L472 441L475 441L472 440z"/>
<path style="fill:#ebedec; stroke:none;" d="M840.667 442.333L841.333 442.667L840.667 442.333z"/>
<path style="fill:#f7f8f7; stroke:none;" d="M464.667 443.333L465.333 443.667L464.667 443.333z"/>
<path style="fill:#ebedec; stroke:none;" d="M215 444L218 448L215 444M471 444L472 445L471 444M846 447L846 448L851 446L846 447M462.667 447.333L463.333 447.667L462.667 447.333z"/>
<path style="fill:#f1f3f3; stroke:none;" d="M848.667 447.333L849.333 447.667L848.667 447.333z"/>
<path style="fill:#ebedec; stroke:none;" d="M853 447L853 448L858 448L853 447M219 448L220 449L219 448z"/>
<path style="fill:#f7f8f7; stroke:none;" d="M223 448L224 449L223 448M448 448L448 449L451 449L448 448z"/>
<path style="fill:#ebedec; stroke:none;" d="M223 452L224 453L223 452M446.667 453.333L447.333 453.667L446.667 453.333M870 453L870 454L874 454L870 453M224 454L228 456L228 455L224 454M440 455L440 456L444 456L440 455z"/>
<path style="fill:#f7f8f7; stroke:none;" d="M232 456L233 457L232 456z"/>
<path style="fill:#ebedec; stroke:none;" d="M438.667 456.333L439.333 456.667L438.667 456.333M232 459L236 462L236 461L232 459M426 462L432 460L426 462M888.667 460.333L889.333 460.667L888.667 460.333M894 462L894 463L897 466L894 462M238.667 463.333L239.333 463.667L238.667 463.333M422 463L422 464L425 464L422 463z"/>
<path style="fill:#f1f3f3; stroke:none;" d="M427.667 463.333L428.333 463.667L427.667 463.333M894.667 463.333L895.333 463.667L894.667 463.333z"/>
<path style="fill:#ebedec; stroke:none;" d="M240 464L241 465L240 464z"/>
<path style="fill:#f7f8f7; stroke:none;" d="M408 465L408 467L410 467L408 465z"/>
<path style="fill:#ebedec; stroke:none;" d="M415 467L416 468L415 467M240.333 469.667L240.667 470.333L240.333 469.667M247 469L248 471L249 471L250 469L247 469M243 471L244 472L243 471M407 471L408 472L407 471M910 471L910 472L914 472L910 471z"/>
<path style="fill:#f7f8f7; stroke:none;" d="M392 473L393 474L392 473z"/>
<path style="fill:#ebedec; stroke:none;" d="M398.667 474.333L399.333 474.667L398.667 474.333M264.667 476.333L265.333 476.667L264.667 476.333M392.667 476.333L393.333 476.667L392.667 476.333M270 478L270 479L275 480L275 479L270 478z"/>
<path style="fill:#f1f3f3; stroke:none;" d="M270.667 479.333L271.333 479.667L270.667 479.333z"/>
<path style="fill:#f7f8f7; stroke:none;" d="M376 479L377 480L376 479z"/>
<path style="fill:#ebedec; stroke:none;" d="M383 479L383 480L388 480L383 479M920 479L921 480L920 479M927 479L928 480L927 479z"/>
<path style="fill:#f7f8f7; stroke:none;" d="M286 480L286 481L290 481L286 480M368 480L368 481L371 481L368 480z"/>
<path style="fill:#ebedec; stroke:none;" d="M367 484L364 485L364 486L367 484M936 488L940 486C937.588 484.645 936.568 485.351 936 488M352 486L352 487L360 487L352 486M304 487L304 488L320 488L304 487M336 487L336 488L352 488L336 487M941 487L941 488L944 488L941 487M944 488L945 489L944 488z"/>
<path style="fill:#f7f8f7; stroke:none;" d="M948.667 488.333L949.333 488.667L948.667 488.333M951.333 489.667L951.667 490.333L951.333 489.667z"/>
<path style="fill:#ebedec; stroke:none;" d="M951 494L951 495L956 496L956 495L951 494z"/>
<path style="fill:#f7f8f7; stroke:none;" d="M959 495L960 496L959 495z"/>
<path style="fill:#ebedec; stroke:none;" d="M960 499L961 500L960 499M962 501L965 503L962 501M965 503L965 504L968 504L965 503z"/>
<path style="fill:#f7f8f7; stroke:none;" d="M972 504L973 505L972 504M975.333 505.667L975.667 506.333L975.333 505.667z"/>
<path style="fill:#ebedec; stroke:none;" d="M974 509L976 511L976 509L974 509M976 511L977 512L976 511z"/>
<path style="fill:#f7f8f7; stroke:none;" d="M983 512L984 513L983 512z"/>
<path style="fill:#ebedec; stroke:none;" d="M984 517L988 520L988 519L984 517M992.333 524.667L992.667 525.333L992.333 524.667M994.667 527.333L995.333 527.667L994.667 527.333M1000.33 530.667L1000.67 531.333L1000.33 530.667M1002 533L1004 535L1004 533L1002 533M1008 538L1014 544L1008 538M1008 542L1008 544L1010 544L1008 542M1016 546L1017 547L1016 546M1017 547L1019 549L1019 547L1017 547z"/>
<path style="fill:#f1f3f3; stroke:none;" d="M1016 549L1017 550L1016 549z"/>
</svg>
